<svg width="21" height="23" viewBox="0 0 21 23" fill="none" xmlns="http://www.w3.org/2000/svg">
<g clip-path="url(#clip0)">
<path d="M13.5184 20.6191C13.2605 20.6421 13.1215 20.4623 12.9921 20.301C12.5117 19.6842 12.0262 19.0657 11.5496 18.4427C11.5138 18.3907 11.4655 18.3477 11.4089 18.3175C11.3522 18.2873 11.289 18.2708 11.2247 18.2694C10.4511 18.2318 9.69328 18.029 9.00618 17.6754C8.31907 17.3219 7.71989 16.8265 7.25204 16.2253C6.65421 15.4914 6.02256 14.7786 5.40875 14.0566C4.79494 13.3346 4.1786 12.6045 3.56104 11.8829C3.16379 11.4153 2.77847 10.949 2.37132 10.4963C2.23341 10.3602 2.12706 10.1975 2.05948 10.0192C1.99189 9.841 1.96466 9.65139 1.97962 9.46328C1.99459 9.27517 2.0514 9.09296 2.1462 8.92902C2.24101 8.76508 2.37159 8.62324 2.52908 8.51314C2.62848 8.43391 2.7441 8.37558 2.86868 8.34181C2.98241 8.30713 3.00535 8.25677 2.96792 8.15134C2.85653 7.89753 2.83185 7.61719 2.89748 7.35139C2.9631 7.08559 3.1156 6.84829 3.33262 6.67425C3.43015 6.57528 3.55082 6.50019 3.68487 6.45508C3.84288 6.41332 3.85958 6.34637 3.77852 6.20762C3.65858 6.01381 3.59165 5.79436 3.5841 5.57015C3.57655 5.34595 3.62862 5.12446 3.73536 4.92677C3.88343 4.63644 4.14542 4.41603 4.46419 4.31359C4.78297 4.21114 5.13269 4.23497 5.4371 4.37988C5.58136 4.43486 5.71431 4.51476 5.82935 4.6156C5.94564 4.73243 6.00584 4.72813 6.09641 4.58693C6.20599 4.42341 6.35306 4.28659 6.52651 4.18682C6.69995 4.08705 6.89523 4.02693 7.09759 4.01102C7.29995 3.9951 7.50409 4.0238 7.69459 4.09495C7.88509 4.1661 8.05696 4.27783 8.19721 4.4217C8.55042 4.79484 8.88496 5.20396 9.21126 5.57434C9.84492 6.30638 10.4821 7.03917 11.1158 7.77122C11.3435 8.03322 11.5713 8.29523 11.8431 8.6059L11.8961 7.73719C11.8854 7.39536 11.9626 7.05753 12.1208 6.75385C12.2608 6.50358 12.4769 6.30136 12.7407 6.174C13.0044 6.04664 13.3033 6.00016 13.5976 6.04072C13.8949 6.05964 14.18 6.16781 14.4128 6.35002C14.6456 6.53223 14.8144 6.77934 14.8956 7.05665C15.1359 7.79064 15.3389 8.53613 15.5707 9.27537C15.69 9.66538 15.8021 10.0598 15.9228 10.4489C16.0093 10.6613 16.1107 10.868 16.2261 11.0676C16.6783 12.1084 16.7936 13.2526 16.5565 14.3482C16.5365 14.4223 16.5357 14.5003 16.5541 14.5754C16.5725 14.6504 16.6096 14.7203 16.6622 14.7788C17.2002 15.4007 17.729 16.0284 18.2636 16.6514C18.3464 16.7734 18.4562 16.8748 18.5491 16.9867C18.5976 17.0536 18.6271 17.1315 18.6347 17.2124C18.6422 17.2933 18.6276 17.3744 18.5921 17.4475L13.5184 20.6191ZM15.6014 18.4453L17.5226 17.25C17.593 17.2061 17.6967 17.1699 17.5935 17.0488C17.0719 16.445 16.5584 15.84 16.0359 15.229C15.9685 15.1296 15.875 15.0463 15.8012 14.9508C15.7532 14.88 15.7231 14.7995 15.7132 14.7159C15.7033 14.6322 15.7139 14.5478 15.7442 14.4695C15.9887 13.4854 15.9174 12.4487 15.5397 11.4956C15.3737 11.1821 15.228 10.8591 15.1034 10.5287C14.8179 9.49613 14.4933 8.45472 14.188 7.41797C14.1464 7.24208 14.0484 7.08255 13.908 6.96223C13.8044 6.8737 13.6765 6.81619 13.5403 6.79688C13.4041 6.77757 13.2656 6.79731 13.1421 6.85364C13.0098 6.90487 12.8966 6.99273 12.8167 7.10628C12.7368 7.21983 12.6936 7.35404 12.6926 7.4922L12.5232 10.1525C12.5215 10.3199 12.4614 10.481 12.3525 10.6098C12.1446 10.8609 11.9897 11.149 11.8962 11.4584C11.8295 11.7003 11.7968 11.9502 11.799 12.2015C11.8074 12.2723 11.7944 12.3436 11.7617 12.407C11.7289 12.4703 11.6778 12.5229 11.6145 12.5585C11.5511 12.5941 11.4782 12.6112 11.4044 12.6078C11.3306 12.6043 11.2592 12.5805 11.1985 12.539C11.1349 12.4979 11.0835 12.4414 11.0496 12.3753C11.0157 12.3092 11.0005 12.2359 11.0055 12.1628C10.9977 11.4701 11.2262 10.7976 11.6558 10.2486C11.7228 10.1572 11.7612 10.0489 11.7663 9.93637C11.7714 9.82384 11.7431 9.71175 11.6847 9.61328C11.5345 9.44052 11.3796 9.26677 11.2292 9.08927C10.5266 8.2792 9.82165 7.47156 9.11905 6.66149C8.6351 6.10739 8.15517 5.54591 7.66655 4.99081C7.57611 4.88044 7.44639 4.80633 7.3032 4.78322C7.16001 4.7601 7.01384 4.78968 6.89376 4.86607C6.83234 4.90848 6.78053 4.96244 6.74138 5.02478C6.70224 5.08712 6.67656 5.15657 6.66585 5.22903C6.65515 5.3015 6.65963 5.37551 6.67905 5.44671C6.69846 5.5179 6.73241 5.58484 6.77889 5.64357C6.85741 5.75132 6.94156 5.85519 7.03101 5.95478L8.61948 7.83926L10.3859 9.91237C10.4491 9.98464 10.4824 10.0767 10.4793 10.1704C10.4762 10.2642 10.4369 10.3529 10.3691 10.4192C10.3345 10.4555 10.2924 10.4844 10.2454 10.5041C10.1985 10.5237 10.1476 10.5338 10.0962 10.5336C10.0447 10.5334 9.99366 10.523 9.94626 10.5029C9.89886 10.4829 9.85611 10.4537 9.8207 10.4172C9.71601 10.3146 9.61769 10.2061 9.52627 10.0923C8.91153 9.36897 8.29961 8.64387 7.68301 7.91779C7.06641 7.1917 6.41368 6.43153 5.77629 5.694C5.62139 5.46104 5.42012 5.25967 5.18435 5.10177C5.08619 5.04236 4.97176 5.01356 4.85688 5.01935C4.74201 5.02514 4.63236 5.06524 4.54312 5.1341C4.45768 5.21859 4.4022 5.32712 4.38443 5.4445C4.36666 5.56187 4.38751 5.68221 4.44404 5.78864C4.53207 5.9478 4.63981 6.09625 4.76485 6.2307L6.16678 7.90066C6.7075 8.53159 7.24329 9.16265 7.77418 9.79385C8.1379 10.2209 8.5028 10.6482 8.8637 11.077C8.9135 11.1318 8.9456 11.1994 8.95597 11.2712C8.96634 11.343 8.95452 11.4158 8.92198 11.4805C8.89426 11.5437 8.84898 11.5981 8.79108 11.6377C8.73318 11.6773 8.66487 11.7007 8.5936 11.7053C8.51501 11.7084 8.43667 11.6913 8.36661 11.6558C8.29655 11.6202 8.23727 11.5674 8.19487 11.5029L7.25322 10.3891C6.54649 9.56111 5.84676 8.73755 5.15433 7.90555C4.9706 7.68928 4.79019 7.46607 4.58251 7.26471C4.49854 7.18353 4.38823 7.13276 4.27063 7.12118C4.15304 7.1096 4.03554 7.13793 3.93845 7.20128C3.83243 7.25814 3.74979 7.34795 3.70377 7.45632C3.65775 7.5647 3.65102 7.68537 3.68464 7.799C3.73101 7.91014 3.79979 8.01157 3.88695 8.09732C4.40715 8.70981 4.93162 9.32614 5.46037 9.94632C6.10304 10.7049 6.74876 11.4607 7.38676 12.2183C7.4296 12.2562 7.46352 12.3026 7.48616 12.3541C7.50881 12.4056 7.51964 12.4611 7.51791 12.5167C7.51618 12.5723 7.50193 12.6268 7.47614 12.6762C7.45035 12.7256 7.41364 12.7689 7.36856 12.803C7.27571 12.8644 7.16134 12.8885 7.04931 12.8703C6.93729 12.852 6.83625 12.7929 6.76727 12.7052C6.1786 12.0144 5.59275 11.3218 5.00362 10.6303C4.59681 10.153 4.1926 9.6722 3.77475 9.20374C3.7173 9.13708 3.64385 9.08492 3.56095 9.05189C3.47804 9.01886 3.38825 9.006 3.29958 9.01445C3.2109 9.0229 3.12609 9.05241 3.05271 9.10033C2.97933 9.14825 2.91965 9.21311 2.87899 9.28912C2.8113 9.3832 2.77887 9.49703 2.78696 9.61217C2.79504 9.72732 2.84317 9.83703 2.92354 9.92354C3.62464 10.755 4.32271 11.5835 5.0243 12.4098C5.99673 13.5484 6.97856 14.6801 7.94904 15.8364C8.37132 16.3665 8.91492 16.7958 9.53639 17.09C10.1579 17.3842 10.84 17.5351 11.5281 17.5306C11.618 17.5293 11.707 17.5499 11.787 17.5905C11.8671 17.631 11.9355 17.6902 11.986 17.7626C12.4542 18.3674 12.93 18.9715 13.3978 19.5756C13.4843 19.7032 13.574 19.7322 13.718 19.6387C14.3357 19.226 14.9726 18.8386 15.6024 18.4467L15.6014 18.4453Z" fill="#C3083F"/>
<path d="M10.6859 4.20016C11.8743 3.49379 13.2906 3.22158 14.6819 3.43216C14.7629 3.43548 14.8415 3.4615 14.9081 3.50703C14.9747 3.55256 15.0264 3.61563 15.0569 3.68853C15.0833 3.75298 15.0903 3.82306 15.0772 3.89066C15.0641 3.95826 15.0314 4.02062 14.9829 4.07055C14.9271 4.12691 14.8559 4.16706 14.7774 4.18656C14.6988 4.20607 14.6159 4.20417 14.5377 4.18108C13.9524 4.08358 13.3547 4.09509 12.7772 4.21501C12.1624 4.33394 11.5771 4.56081 11.0501 4.88439L10.886 4.98654C10.797 5.03761 10.6903 5.05285 10.5887 5.02902C10.487 5.0052 10.3985 4.94419 10.3418 4.85898C10.2893 4.77546 10.2718 4.67615 10.2928 4.58156C10.3139 4.48698 10.3719 4.40434 10.455 4.35072C10.5288 4.29625 10.6059 4.24598 10.6859 4.20016V4.20016Z" fill="#C3083F"/>
<path d="M9.55346 3.12428C10.3576 2.62899 11.2501 2.27961 12.188 2.09302C12.2546 2.08005 12.322 2.07084 12.3898 2.06544C12.4903 2.0532 12.5923 2.07933 12.6742 2.13828C12.7561 2.19722 12.8113 2.28433 12.8283 2.38107C12.8476 2.47662 12.8273 2.57512 12.7718 2.65527C12.7162 2.73541 12.6298 2.79074 12.5313 2.80929C12.0915 2.89304 11.6611 3.01555 11.2456 3.17528C10.6605 3.38548 10.1133 3.68091 9.62278 4.0514C9.55867 4.09733 9.49148 4.13916 9.42165 4.17665C9.3412 4.23556 9.23952 4.26128 9.13852 4.24825C9.03751 4.23523 8.94527 4.1845 8.88166 4.10701C8.81806 4.02952 8.78819 3.93147 8.79848 3.83398C8.80878 3.73649 8.85842 3.64737 8.93671 3.58583C9.13253 3.42028 9.33847 3.26616 9.55346 3.12428V3.12428Z" fill="#C3083F"/>
<path d="M2.96573 12.8277C3.0038 12.8763 3.02775 12.9338 3.03506 12.994C3.04237 13.0542 3.03276 13.115 3.00726 13.1699C2.69438 13.9099 2.579 14.7162 2.67154 15.5158C2.67953 15.5666 2.67671 15.6183 2.66327 15.6677C2.64983 15.7171 2.62604 15.7632 2.59336 15.8032C2.56068 15.8431 2.5198 15.8762 2.4732 15.9002C2.4266 15.9242 2.37527 15.9388 2.32234 15.943C2.26945 15.9464 2.21621 15.9396 2.16581 15.9229C2.11541 15.9061 2.06886 15.8798 2.02895 15.8455C1.98903 15.8113 1.95657 15.7697 1.93348 15.7233C1.9104 15.6769 1.89717 15.6266 1.89458 15.5755C1.77828 14.6639 1.90819 13.7423 2.27169 12.9002C2.29615 12.8289 2.34269 12.7668 2.4051 12.7223C2.46752 12.6777 2.54283 12.6527 2.621 12.6507C2.68934 12.6469 2.75773 12.6614 2.81858 12.6926C2.87943 12.7239 2.93036 12.7706 2.96573 12.8277V12.8277Z" fill="#C3083F"/>
<path d="M3.66879 16.9583C3.58824 16.7736 3.52982 16.5809 3.49467 16.3839C3.37461 15.7791 3.36167 15.1605 3.45642 14.5545C3.46587 14.506 3.47949 14.4584 3.49714 14.4121C3.52132 14.322 3.57947 14.2443 3.66032 14.194C3.74117 14.1437 3.83896 14.1244 3.93473 14.1399C3.98397 14.1461 4.03159 14.1616 4.07481 14.1857C4.11804 14.2097 4.156 14.2417 4.18651 14.2798C4.21701 14.3179 4.23944 14.3613 4.2525 14.4076C4.26555 14.4539 4.26897 14.5021 4.26256 14.5494C4.23523 14.8327 4.19316 15.1134 4.19251 15.4006C4.1886 15.789 4.23964 16.177 4.34425 16.5537C4.36831 16.6278 4.38259 16.7045 4.38674 16.7818C4.38705 16.863 4.35897 16.9414 4.30704 17.0045C4.25511 17.0676 4.18236 17.1117 4.10055 17.1296C4.01976 17.1501 3.93382 17.1445 3.85586 17.1136C3.7779 17.0827 3.7122 17.0281 3.66879 16.9583V16.9583Z" fill="#C3083F"/>
<path d="M14.2883 2.68366C14.2467 2.71111 14.1997 2.73012 14.15 2.73955C14.1004 2.74897 14.0491 2.74863 13.9993 2.73853C13.9495 2.72843 13.9021 2.70878 13.8601 2.68076C13.818 2.65274 13.7822 2.61693 13.7546 2.57545C13.7111 2.5136 13.6874 2.44093 13.6867 2.36669C13.6859 2.29245 13.7081 2.22001 13.7504 2.15858C13.7927 2.09715 13.8532 2.04952 13.9242 2.02175C13.9952 1.99398 14.0734 1.98734 14.149 2.00266C14.2246 2.01798 14.2941 2.05458 14.3486 2.10779C14.4031 2.161 14.4402 2.22841 14.4551 2.30145C14.47 2.37448 14.4622 2.44983 14.4325 2.51789C14.4028 2.58596 14.3526 2.64366 14.2883 2.68366Z" fill="#C3083F"/>
</g>
<defs>
<clipPath id="clip0">
<rect width="21" height="22" fill="white" transform="translate(0 0.5)"/>
</clipPath>
</defs>
</svg>
