<svg id="Layer_1" data-name="Layer 1" xmlns="http://www.w3.org/2000/svg" xmlns:xlink="http://www.w3.org/1999/xlink" viewBox="0 0 133.3 100"><defs><style>.cls-1{fill:#4e4e50;}.cls-2{fill:#c3083f;}.cls-3{fill:url(#linear-gradient);}</style><linearGradient id="linear-gradient" x1="86.26" y1="87.12" x2="130.41" y2="64.11" gradientUnits="userSpaceOnUse"><stop offset="0" stop-color="#c3083f"/><stop offset="1" stop-color="#950741"/></linearGradient></defs><title>logo</title><path class="cls-1" d="M41.9,95.9a20.4,20.4,0,0,1-1.5-3.7,11.3,11.3,0,0,1-.8-3.4,34.8,34.8,0,0,1-7.5,4.8,26,26,0,0,1-11.2,2.3c-7,0-12.1-2.1-15.4-6.3S.6,80.1.6,73.6A46.7,46.7,0,0,1,3.3,57.9a40.4,40.4,0,0,1,8.1-13.7,39.5,39.5,0,0,1,13.7-9.7,45.1,45.1,0,0,1,19-3.7h3.7l4.3.5,4.2,1A26.1,26.1,0,0,1,60,33.8L50.9,71.5c-.5,1.8-.9,3.6-1.2,5.3a28.9,28.9,0,0,0-.5,5.3,26.7,26.7,0,0,0,.6,5.6c.3,1.8,1.6,6,2.3,8.2ZM23.2,86.8a17.7,17.7,0,0,0,9-2.2,23.3,23.3,0,0,0,6.7-5.1,44,44,0,0,1,.5-4.5c.2-1.7.5-3.4.8-4.9l7.4-29.4a13.1,13.1,0,0,0-2.5-.5l-3-.2a28.2,28.2,0,0,0-12.4,2.7,31.1,31.1,0,0,0-9.6,7.2,31.8,31.8,0,0,0-6.2,10.3,36,36,0,0,0-2.1,12.2,25.2,25.2,0,0,0,.5,5.7,13.2,13.2,0,0,0,1.8,4.5,8.5,8.5,0,0,0,3.5,3A11.6,11.6,0,0,0,23.2,86.8Z"/><line class="cls-2" x1="86.8" y1="13.7" x2="68.6" y2="94.9"/><polygon class="cls-2" points="73.9 96.1 62.7 96.1 83.4 3.9 94.6 3.9 73.9 96.1"/><path class="cls-3" d="M110.6,67.8s12.2-6,20.1-10.1V71L80.9,96.1l3.3-14.9,26.4-13.4Z"/><path class="cls-2" d="M130.7,57.7,93.8,39.1,91.1,51l23.1,11.6h0L130.7,71Z"/></svg>